<?xml version="1.0" encoding="UTF-8"?>
<svg xmlns="http://www.w3.org/2000/svg" viewBox="0 0 500 500">
  <defs>
    <style>
      .cls-1 {
        opacity: .3;
      }

      .cls-1, .cls-2, .cls-3, .cls-4, .cls-5, .cls-6, .cls-7, .cls-8, .cls-9, .cls-10, .cls-11, .cls-12, .cls-13 {
        stroke-width: 0px;
      }

      .cls-2, .cls-14 {
        opacity: .5;
      }

      .cls-2, .cls-8 {
        fill: #fff;
      }

      .cls-15 {
        fill: none;
        stroke: #c52031;
        stroke-miterlimit: 10;
      }

      .cls-4 {
        fill: #263238;
      }

      .cls-5 {
        fill: #e0e0e0;
      }

      .cls-6 {
        fill: #de2437;
      }

      .cls-7 {
        fill: #c52031;
      }

      .cls-9 {
        fill: #ffbe9d;
      }

      .cls-10 {
        fill: #fafafa;
      }

      .cls-11 {
        fill: #ebebeb;
      }

      .cls-12 {
        fill: #eb996e;
      }

      .cls-13 {
        fill: #f5f5f5;
      }
    </style>
  </defs>
  <g id="Background_Complete" data-name="Background Complete">
    <g>
      <g>
        <polygon class="cls-5" points="152.76 74.1 161.67 96.91 156.13 96.89 151.69 82.87 152.76 74.1"/>
        <g>
          <g>
            <polygon class="cls-11" points="122.31 53.03 119.24 96.73 150.89 97.39 154.45 53.03 122.31 53.03"/>
            <polygon class="cls-10" points="125.48 56.55 122.92 92.92 146.45 94.02 149.73 56.33 125.48 56.55"/>
          </g>
          <polygon class="cls-5" points="130.64 61.69 128.73 87.26 141.7 87.26 143.99 61.69 130.64 61.69"/>
        </g>
      </g>
      <g>
        <polygon class="cls-13" points="91.1 97 91.1 75.12 107.13 75.12 107.13 96.99 91.1 97"/>
        <path class="cls-5" d="M100.21,75.12s3.87-28.25,2.78-28.21c-1.08.04-3.8,25.76-3.8,25.76,0,0-.11-21.3-1.13-21.19-1.02.11,0,22.55,0,22.55,0,0-1.74-18.2-2.68-17.77-.94.44.4,18.86.4,18.86h4.43"/>
        <path class="cls-11" d="M97.3,75.12s1.34-14.08,1.78-13.12c.44.96,0,8.38,0,8.38,0,0,3.71-18.2,4.68-17.58.97.62-3.8,19.75-3.8,19.75,0,0,3.62-10.92,4.42-9.77.79,1.15-3,11.4-3,11.4,0,0,3.89-7.24,4.15-6.27.26.97-1.86,7.21-1.86,7.21h-6.37Z"/>
        <path class="cls-11" d="M95.02,75.21s-8.57-16.82-7.51-16.3c1.06.52,6.54,11.39,6.54,11.39,0,0-3.62-10.49-2.83-10.81s4.77,11.78,4.77,11.78l.89,3.94h-1.86Z"/>
        <polygon class="cls-5" points="98.52 75.16 98.93 97.04 91.31 97.04 91.16 75.09 98.52 75.16"/>
        <polygon class="cls-11" points="91.12 77.05 98.5 77.18 107.13 77.05 107.4 74.96 90.91 74.96 91.12 77.05"/>
      </g>
      <rect class="cls-5" x="74.88" y="96.39" width="112.18" height="5.78"/>
    </g>
    <g>
      <g>
        <rect class="cls-10" x="344.69" y="102.6" width="111.16" height="194.48"/>
        <path class="cls-11" d="M379.32,298.94s-12.17-87.5-18.56-97.11c0,0,36.42-27.34,37.53-101.45h-55.26v198.56h36.29Z"/>
        <path class="cls-11" d="M421.21,298.55s12.17-87.5,18.56-97.11c0,0-36.42-27.34-37.53-101.45h55.26v198.56h-36.29Z"/>
      </g>
      <path class="cls-5" d="M458.78,95.68h-124.39v208.32h129.54V95.68h-5.15ZM367.03,203.91v49.54h-22.34v-49.54h22.34ZM344.69,200.33v-51.27h22.34v51.27h-22.34ZM401.04,200.33v-51.27h27.95v51.27h-27.95ZM428.99,203.91v49.54h-27.95v-49.54h27.95ZM368.03,200.33v-51.27h29.43v51.27h-29.43ZM397.46,203.91v49.54h-29.43v-49.54h29.43ZM368.03,148.17v-45.08h29.43v45.08h-29.43ZM397.46,254.33v43.25h-29.43v-43.25h29.43ZM401.04,254.33h27.95v43.25h-27.95v-43.25ZM401.04,148.17v-45.08h27.95v45.08h-27.95ZM429.98,203.91h23.64v49.54h-23.64v-49.54ZM429.98,200.33v-51.27h23.64v51.27h-23.64ZM453.62,148.17h-23.64v-45.08h23.64v45.08ZM367.03,103.09v45.08h-22.34v-45.08h22.34ZM344.69,254.33h22.34v43.25h-22.34v-43.25ZM429.98,297.58v-43.25h23.64v43.25h-23.64Z"/>
    </g>
    <g>
      <g>
        <path class="cls-13" d="M403.26,348.22c-4.92.79-7.12,6.84-6.69,11.81.43,4.97,2.47,9.82,1.93,14.78-.69,6.29-5.45,11.61-6,17.92-.65,7.44,4.61,14.03,6.18,21.33.76,3.55.66,7.31,1.98,10.69,2.23,5.7,8.77,9.37,14.8,8.29,6.03-1.08,10.9-6.78,11.01-12.9.11-5.71-3.42-11.09-2.99-16.79.32-4.21,2.78-8.2,2.26-12.39-.63-4.98-5.25-8.52-6.88-13.27-1.63-4.75-.06-9.99-.63-14.98-1.01-8.96-5.98-15.2-14.96-14.48"/>
        <path class="cls-11" d="M378.12,391.59c-.84,8.3,2.83,18.07,7.1,25.23,4.27,7.17,10.89,12.91,18.58,16.13.87.36,1.95.67,2.68.08.6-.49.67-1.36.68-2.13.06-8.73-2.78-17.46-7.97-24.49-5.19-7.03-12.7-12.31-21.07-14.82"/>
        <path class="cls-5" d="M414.28,450.31s-.1-.15-.24-.46c-.16-.36-.35-.81-.59-1.36-.5-1.19-1.24-2.89-2.19-4.99-1.9-4.19-4.7-9.89-8.24-15.95-3.54-6.06-7.14-11.3-9.86-15.01-1.36-1.86-2.48-3.34-3.27-4.36-.36-.48-.66-.87-.89-1.18-.2-.27-.3-.42-.29-.43.01-.01.14.12.36.37.25.3.57.67.96,1.13.83.98,2,2.44,3.39,4.27,2.79,3.66,6.44,8.9,10,14.97,3.55,6.08,6.32,11.82,8.14,16.06.91,2.12,1.61,3.84,2.06,5.05.21.56.38,1.03.51,1.39.11.32.16.49.15.5Z"/>
        <path class="cls-5" d="M408.94,371.18s.05.27.09.8c.04.56.1,1.33.17,2.29.13,2.03.31,4.89.54,8.41.45,7.1,1.08,16.91,1.84,27.74.76,10.83,1.51,20.64,2.06,27.73.27,3.51.49,6.37.64,8.4.07.96.12,1.72.16,2.29.03.52.04.8.02.8-.02,0-.06-.27-.12-.79-.06-.56-.14-1.32-.24-2.28-.19-2.03-.46-4.88-.79-8.39-.64-7.09-1.44-16.89-2.2-27.73-.76-10.83-1.34-20.65-1.7-27.76-.16-3.52-.3-6.39-.39-8.42-.03-.96-.06-1.73-.08-2.29-.01-.52-.01-.8,0-.8Z"/>
      </g>
      <path class="cls-5" d="M401.3,438.47h20.79v15.26c0,5.51-4.47,9.98-9.98,9.98h0c-5.3,0-9.68-4.15-9.96-9.45l-.84-15.79Z"/>
    </g>
  </g>
  <g id="Floor">
    <path class="cls-4" d="M457.78,463.28c0,.14-90.78.26-202.74.26s-202.76-.12-202.76-.26,90.76-.26,202.76-.26,202.74.12,202.74.26Z"/>
  </g>
  <g id="Character">
    <g>
      <g>
        <g>
          <path class="cls-9" d="M106.62,450.18s25.22-80.1,25.75-82.7c.48-2.35-9.15-59.99-10.37-74.91l34.08,1.27s0,.09,0,.25l14.48.8-12.97,163.82h-15.68l1.55-54.35c-9.67,25.96-23.53,52.42-23.53,52.42l-13.33-6.59Z"/>
          <path class="cls-12" d="M142.83,423.84c-.01-.5.19-18.21.19-18.21.2,1.06,6.01-15.38,5.87-16.38-.07-.52-6.06,34.59-6.06,34.59Z"/>
        </g>
        <path class="cls-12" d="M149.56,381.47s.07.35.1.99c.03.64.04,1.57-.02,2.72-.02.57-.08,1.2-.16,1.87-.09.67-.18,1.39-.33,2.13-.28,1.5-.72,3.11-1.28,4.77-1.14,3.31-2.4,6.21-3.29,8.32-.42.96-.79,1.78-1.09,2.48-.27.58-.43.9-.47.88s.07-.35.28-.96c.21-.6.53-1.47.94-2.54.8-2.14,2.01-5.06,3.13-8.34.55-1.64,1-3.23,1.3-4.7.17-.73.27-1.44.37-2.09.09-.66.17-1.28.22-1.84.11-1.13.16-2.05.19-2.69.03-.64.07-.99.1-.99Z"/>
      </g>
      <g>
        <g>
          <path class="cls-7" d="M171.81,325.1c.6-22.84-1.96-46.5-3.99-53.67-.19-.68-.36-1.38-.52-2.07l-3.88-16.22s-1.61-1.32,2.7-7.05c2-2.66,1.63-12.82,1.63-12.82l-1.93,13.43,20.24-9.75s-8.5-24.21-11.25-27.75c-7.13-9.18-20.01-7.58-20.01-7.58l-16.86-.19s-6.44.41-12.58,3.28l-.42.11v.09c-4.83,2.36-9.14,6.33-10.38,12.8-2.02,10.55-1.39,15.37-1.39,15.37l13.74-.24-1.22,29.08c-1.04,3.58-3.94,2.72-8.23,19.25-1.77,6.8-2.83,13.25-3.46,19-.82,7.56-.68,15.2.31,22.74l7.71,58.57h46.68l3.12-56.37Z"/>
          <polygon class="cls-7" points="133.52 228.09 136.02 238.75 112.41 238.75 113.96 220.87 133.52 228.09"/>
          <path class="cls-4" d="M112.41,238.75c0-.07,1.19-.2,3.13-.31,1.94-.11,4.61-.21,7.57-.2,2.96.01,5.64.14,7.57.3,1.93.15,3.12.32,3.12.38,0,.07-1.2.04-3.14-.02-1.93-.06-4.6-.13-7.56-.14-2.95-.01-5.62.02-7.56.04-1.94.02-3.13.02-3.14-.06Z"/>
          <path class="cls-4" d="M163.42,253.91s-.1-.36-.14-1.04c.02-.34,0-.76.09-1.23.06-.48.2-1.02.41-1.59.2-.57.48-1.18.83-1.8.34-.63.74-1.27,1.16-1.94.84-1.33,1.77-2.8,2.33-4.5.27-.85.45-1.7.5-2.54.06-.84.01-1.66-.07-2.43-.17-1.55-.53-2.93-.85-4.07-.67-2.28-1.24-3.66-1.15-3.69.03-.01.21.31.48.93.27.61.65,1.51,1.02,2.65.37,1.14.78,2.53.98,4.12.1.79.16,1.64.11,2.52-.04.88-.23,1.79-.51,2.67-.6,1.78-1.56,3.28-2.42,4.59-.43.66-.84,1.29-1.19,1.89-.35.6-.64,1.18-.86,1.72-.22.54-.38,1.05-.47,1.51-.12.45-.12.86-.17,1.19-.02.66-.02,1.03-.06,1.04Z"/>
          <path class="cls-4" d="M122.01,381.47s.02-.12.09-.34c.08-.24.19-.57.32-.97.3-.88.73-2.13,1.28-3.73.55-1.62,1.29-3.58,2.12-5.86.83-2.29,1.82-4.87,2.9-7.73,2.21-5.72,4.83-12.51,7.74-20.05,1.45-3.78,2.97-7.74,4.55-11.85,1.58-4.11,3.16-8.38,4.79-12.75,1.59-4.39,3.17-8.67,4.59-12.83.71-2.08,1.42-4.13,2.1-6.13.65-2.01,1.29-3.98,1.91-5.91,1.29-3.83,2.29-7.55,3.34-10.98.49-1.73.91-3.41,1.34-5.03.41-1.62.88-3.15,1.17-4.65.33-1.49.64-2.91.94-4.26.15-.67.29-1.33.43-1.96.11-.64.21-1.26.31-1.86.2-1.2.38-2.31.55-3.34.17-1.03.35-1.96.39-2.82.16-1.68.28-2.99.37-3.92.05-.43.08-.76.11-1.02.03-.23.05-.35.05-.35s0,.12,0,.35c-.01.26-.03.6-.06,1.02-.06.93-.16,2.25-.27,3.94-.03.86-.19,1.8-.35,2.83-.16,1.03-.33,2.15-.51,3.35-.09.6-.19,1.22-.29,1.87-.13.64-.27,1.29-.41,1.97-.29,1.35-.59,2.78-.9,4.28-.29,1.51-.74,3.05-1.14,4.67-.42,1.62-.83,3.31-1.31,5.04-1.03,3.45-2.02,7.17-3.29,11.01-.62,1.93-1.25,3.9-1.9,5.92-.68,2.01-1.38,4.05-2.09,6.14-1.42,4.17-2.99,8.45-4.58,12.84-1.62,4.38-3.21,8.65-4.8,12.76-1.59,4.11-3.12,8.07-4.58,11.84-2.95,7.53-5.61,14.31-7.84,20.01-1.1,2.85-2.1,5.43-2.97,7.7-.86,2.27-1.63,4.22-2.21,5.83-.59,1.58-1.05,2.82-1.37,3.69-.15.4-.28.72-.37.96-.09.21-.13.32-.14.32Z"/>
          <path class="cls-4" d="M134.54,220.79c.07,0,.1,1.04.08,2.71-.02,1.67-.08,3.98-.18,6.53-.1,2.55-.22,4.86-.33,6.53-.11,1.67-.22,2.7-.29,2.7-.07,0-.1-1.04-.08-2.71s.08-3.98.18-6.53c.1-2.55.22-4.86.33-6.53.11-1.67.22-2.7.29-2.7Z"/>
          <path class="cls-1" d="M155.84,237.08s-5.06,31.86-19.81,30.83c0,0-6.64-.08-8.78-4.49v-1.74l28.59-24.59Z"/>
        </g>
        <path class="cls-4" d="M163.42,253.14c0,.14-3.2.38-7.15.53-3.96.15-7.17.15-7.17,0,0-.14,3.2-.38,7.16-.53,3.96-.15,7.17-.15,7.17,0Z"/>
        <path class="cls-4" d="M158.01,253.36s-.22.07-.51-.15c-.3-.21-.54-.67-.79-1.18-.28-.59-.58-1.2-.89-1.84-.15-.35-.36-.7-.47-1.17-.11-.45,0-1.11.56-1.41.28-.15.63-.1.87.04.24.14.4.33.54.51.26.39.42.75.58,1.12.29.74.42,1.45.46,2.05.07,1.2-.18,1.91-.23,1.9-.09-.01.03-.73-.13-1.86-.09-.56-.24-1.22-.54-1.9-.15-.33-.33-.7-.55-1.01-.22-.31-.53-.52-.77-.39-.25.13-.38.5-.29.84.07.35.26.72.41,1.07.27.66.53,1.28.79,1.89.21.55.38.96.59,1.18.2.22.39.26.38.3Z"/>
        <path class="cls-4" d="M158.04,253.9c-.06-.02.15-.83.64-2.09.24-.63.56-1.37.94-2.17.19-.4.4-.82.62-1.25.11-.22.25-.46.47-.67.2-.22.64-.38.99-.18.33.18.49.53.51.83.02.31-.04.57-.1.81-.12.49-.3.94-.52,1.35-.44.81-1,1.44-1.54,1.87-1.09.87-1.97,1.01-1.98.96-.04-.09.77-.35,1.74-1.24.48-.44.97-1.05,1.36-1.81.19-.38.35-.8.45-1.25.13-.45.13-.91-.16-1.06-.23-.16-.57.22-.77.63-.22.42-.44.83-.64,1.23-.4.79-.75,1.5-1.03,2.11-.57,1.21-.91,1.97-.98,1.94Z"/>
      </g>
      <polygon class="cls-1" points="134.54 223.08 137.36 242.16 135.54 245.5 133.3 239.02 133.8 238.93 134.54 223.08"/>
      <g>
        <g>
          <path class="cls-7" d="M157.89,459.52v-1.47s-16.06-.7-16.06-.7l-.04,6.07.99.07c4.41.26,22.44,1,25.39.12,3.29-.99-10.28-4.09-10.28-4.09Z"/>
          <g class="cls-14">
            <path class="cls-8" d="M147.59,463.31c-.22-1.34-.96-2.58-2.03-3.41s-2.38-1.28-3.73-1.17l-.02,4.47,5.78.12Z"/>
          </g>
        </g>
        <path class="cls-2" d="M164.52,461.27s4.75,1.39,4.16,2.17c-.6.78-18.84.72-26.89-.02l.03-.36,21.28.26s.49-2.02,1.42-2.05Z"/>
        <path class="cls-4" d="M141.57,463.05s.09.02.27.03c.24.02.5.03.79.05.79.04,1.76.08,2.9.14,2.45.1,5.84.19,9.59.2,3.75.02,7.14-.04,9.59-.12,1.15-.04,2.12-.08,2.9-.11.29-.02.55-.03.79-.04.18-.01.27-.02.27-.03,0,0-.1-.01-.28-.01-.24,0-.5,0-.79,0-.79.01-1.76.03-2.91.05-2.45.04-5.84.08-9.59.06-3.74-.02-7.13-.08-9.59-.15-1.15-.03-2.12-.05-2.91-.07-.29,0-.55,0-.79-.01-.18,0-.28,0-.28,0Z"/>
        <path class="cls-4" d="M163.1,463.57c.06,0,.11-.69.55-1.38.43-.71,1.03-1.06.99-1.11-.01-.05-.7.25-1.16,1.01-.47.75-.43,1.5-.38,1.49Z"/>
        <path class="cls-4" d="M158.39,461.16s.27-.24.51-.61c.23-.37.39-.69.34-.72-.04-.03-.27.24-.51.61-.23.37-.39.69-.34.72Z"/>
        <path class="cls-4" d="M157.1,460.47s.29-.13.56-.37c.28-.25.47-.48.44-.52-.04-.04-.29.13-.56.37-.28.25-.47.48-.44.52Z"/>
        <path class="cls-4" d="M156.29,458.96c0,.05.37.1.83.11.46,0,.84-.03.84-.08,0-.05-.37-.1-.83-.11-.46,0-.84.03-.84.08Z"/>
        <path class="cls-4" d="M156.01,457.9s.39.23.93.27c.54.04.97-.07.96-.12,0-.06-.43-.03-.95-.07-.51-.04-.93-.13-.94-.08Z"/>
        <path class="cls-4" d="M158.94,459.77s.39.07,1.03,0c.32-.04.69-.11,1.09-.24.2-.07.41-.12.63-.26.1-.07.21-.16.26-.32.04-.15-.04-.33-.15-.41-.98-.51-1.96.04-2.33.54-.2.26-.29.51-.34.68-.04.18-.04.28-.03.28.04.01.07-.4.47-.87.2-.23.5-.45.88-.57.36-.11.88-.13,1.22.09.16.12.1.31-.08.42-.17.11-.39.17-.58.24-.39.13-.75.22-1.06.27-.62.11-1.01.11-1.01.14Z"/>
        <path class="cls-4" d="M159.2,459.82s.17-.25.12-.71c-.02-.23-.11-.5-.28-.75-.18-.23-.41-.54-.85-.53-.24.03-.36.3-.32.47.02.18.1.33.17.46.15.26.32.47.48.62.32.32.57.44.59.42.02-.02-.2-.18-.49-.51-.14-.16-.29-.37-.43-.62-.14-.22-.24-.61.02-.65.26-.02.52.23.67.44.16.22.25.46.29.67.08.42-.02.68.01.69Z"/>
        <path class="cls-4" d="M141.91,458.68s.46-.04,1.18.05c.72.08,1.71.38,2.57,1.07.86.69,1.37,1.6,1.6,2.28.24.69.26,1.15.3,1.14.01,0,.02-.12,0-.32-.02-.21-.06-.51-.17-.86-.21-.71-.71-1.67-1.61-2.39-.9-.72-1.94-1.01-2.68-1.06-.37-.03-.67-.01-.88.02-.21.03-.32.06-.31.07Z"/>
        <path class="cls-4" d="M149.6,461.78c0,.05,1.04.22,2.33.22,1.3,0,2.34-.15,2.34-.2,0-.06-1.05.01-2.34,0-1.29,0-2.33-.08-2.33-.03Z"/>
        <path class="cls-4" d="M146.47,461.75s.08.22.19.46c.11.24.16.45.22.45.05,0,.08-.25-.04-.53-.12-.28-.33-.42-.37-.38Z"/>
        <path class="cls-4" d="M145.3,460.27s.06.2.23.37c.16.17.33.27.37.24.04-.04-.06-.2-.23-.37-.16-.17-.33-.27-.37-.24Z"/>
        <path class="cls-4" d="M143.61,459.6c.01.05.22.05.46.14.24.08.4.21.45.17.04-.03-.09-.26-.38-.36-.29-.1-.54,0-.52.05Z"/>
        <path class="cls-4" d="M142.41,459.28s.07.13.2.18c.13.05.26.05.27,0,.02-.05-.07-.13-.2-.18-.13-.05-.26-.05-.27,0Z"/>
      </g>
      <g>
        <g>
          <path class="cls-7" d="M120.26,458.1l.61-1.34-14.37-7.22-2.53,5.52.88.47c3.92,2.04,20.06,10.1,23.11,10.51,3.41.45-7.7-7.94-7.7-7.94Z"/>
          <g class="cls-14">
            <path class="cls-8" d="M109.31,457.34c.34-1.31.18-2.75-.45-3.94-.63-1.2-1.65-2.14-2.92-2.6l-1.84,4.07,5.22,2.48Z"/>
          </g>
        </g>
        <path class="cls-2" d="M125.59,462.41s3.77,3.21,2.91,3.68c-.86.47-17.48-7.06-24.52-11.03l.17-.31,19.31,8.95s1.27-1.64,2.14-1.29Z"/>
        <path class="cls-4" d="M103.92,454.64s.08.05.24.14c.21.11.44.23.7.37.7.36,1.57.8,2.59,1.31,2.2,1.09,5.25,2.56,8.66,4.11,3.41,1.55,6.53,2.88,8.8,3.82,1.06.43,1.96.79,2.7,1.09.27.11.52.2.74.28.17.06.26.09.26.09,0,0-.08-.05-.25-.12-.22-.1-.46-.2-.72-.32-.73-.31-1.62-.69-2.67-1.15-2.25-.97-5.36-2.32-8.77-3.87-3.41-1.55-6.47-3-8.68-4.06-1.03-.5-1.91-.92-2.62-1.26-.27-.12-.5-.24-.72-.34-.16-.08-.25-.11-.26-.11Z"/>
        <path class="cls-4" d="M123.35,463.93c.05.03.38-.58,1.07-1.04.68-.47,1.37-.55,1.36-.6,0-.05-.74-.06-1.47.44-.74.49-1.01,1.19-.96,1.2Z"/>
        <path class="cls-4" d="M120.04,459.8s.35-.11.71-.35c.36-.24.64-.47.61-.51-.03-.04-.35.11-.71.35s-.64.47-.61.51Z"/>
        <path class="cls-4" d="M119.15,458.65c.02.05.32,0,.67-.11.35-.11.63-.24.61-.29-.02-.05-.32,0-.67.11-.35.11-.63.24-.61.29Z"/>
        <path class="cls-4" d="M119.02,456.94s.3.25.72.44c.42.2.77.31.8.27.02-.05-.3-.25-.72-.44-.42-.19-.77-.31-.8-.27Z"/>
        <path class="cls-4" d="M119.21,455.85s.26.37.74.63c.48.26.92.33.93.28.01-.05-.38-.2-.83-.45-.45-.25-.79-.5-.83-.46Z"/>
        <path class="cls-4" d="M121.11,458.76s.33.23.94.42c.3.1.68.18,1.1.23.21.02.42.06.68.02.12-.02.26-.06.36-.19.1-.12.1-.31.03-.44-.68-.87-1.81-.77-2.35-.46-.29.15-.48.35-.59.49-.11.14-.15.24-.14.24.03.03.23-.34.79-.6.27-.13.64-.21,1.03-.16.37.05.86.24,1.08.58.1.18-.04.33-.25.35-.2.03-.43,0-.63-.01-.41-.04-.77-.11-1.08-.19-.61-.15-.96-.32-.98-.29Z"/>
        <path class="cls-4" d="M121.33,458.92s.25-.16.4-.6c.07-.22.11-.5.05-.8-.07-.28-.15-.66-.56-.83-.23-.07-.77.39-.8.56-.06.17.27.08.29.23.03.3.1.56.19.77.16.42.35.63.36.62.03-.02-.11-.25-.23-.67-.06-.21-.12-.46-.14-.74-.04-.26.03-.65.29-.59.24.08.38.42.44.68.06.27.04.52-.01.73-.1.41-.3.62-.27.64Z"/>
        <path class="cls-4" d="M106.02,450.79s.43.15,1.06.53c.62.37,1.4,1.05,1.91,2.03.5.99.59,2.02.53,2.74-.06.72-.23,1.15-.19,1.16.01,0,.06-.1.13-.29.07-.2.15-.49.2-.86.1-.73.03-1.81-.49-2.84-.53-1.03-1.36-1.71-2.01-2.06-.33-.18-.61-.29-.81-.34-.2-.06-.31-.08-.32-.06Z"/>
        <path class="cls-4" d="M111.77,456.77s.86.62,2.04,1.16c1.18.54,2.2.83,2.21.78.02-.05-.96-.42-2.13-.95-1.17-.53-2.09-1.03-2.12-.98Z"/>
        <path class="cls-4" d="M108.93,455.46c-.05.02-.01.24-.02.5,0,.26-.04.48.02.5.05.02.18-.2.18-.5,0-.3-.13-.52-.18-.5Z"/>
        <path class="cls-4" d="M108.46,453.63c-.05.02-.02.21.06.43.08.22.19.39.24.37.05-.02.02-.21-.06-.43-.08-.22-.19-.38-.24-.37Z"/>
        <path class="cls-4" d="M107.2,452.32c-.01.05.18.14.36.31.18.17.28.36.34.34.05,0,.02-.27-.2-.48-.22-.21-.49-.22-.49-.17Z"/>
        <path class="cls-4" d="M106.24,451.54s.01.15.11.25c.1.1.21.15.25.12.04-.04-.01-.15-.11-.25-.1-.1-.21-.15-.25-.12Z"/>
      </g>
      <g>
        <path class="cls-9" d="M166.75,208.92c.13-1.34.4-3.14.46-3.97.19-2.53.62-3.09,1.46-2.72,1.37.61-.07,7.08.92,7.17.53.05,1.24-3.74,1.52-5.6.3-1.99.51-4.7.64-5.66.14-1.06,1.94-1.3,1.88.58-.07,1.95-.16,7.3.29,7.51,1.25.58,1.21-7.07,1.5-9.57.07-.56.19-.95.35-1.22.43-.76,1.61-.47,1.73.39.33,2.44-.15,9.03.03,10.1.06.33.88.49,1.08-.6.27-1.47.15-8.49,1.59-7.86,1.59.68-.12,8.99.53,9.83,1.21,1.58,1.34-7.45,2.84-7.06.76.2.74.48-.03,5.3-.35,2.22-1.84,7.02-2.64,11.14,3.48,12.27,9.57,35.25,8.68,42.83-.51,4.34-10.58,7.34-14.9,4.1-4.32-3.24-7.33-17.66-7.33-17.66l5.19-3.07-5.08-27.8h0c-.21-.58-.31-2.1-.62-2.82-.35-.83-.19-2.45-.1-3.35Z"/>
        <path class="cls-12" d="M175.49,257.54c-.14.03-.9-3.22-1.68-7.26-.79-4.04-1.31-7.33-1.17-7.36.14-.03.9,3.22,1.68,7.26.79,4.04,1.31,7.33,1.17,7.36Z"/>
      </g>
      <g>
        <g>
          <path class="cls-3" d="M163.12,190.47c4.4-.64,8.86-.82,13.3-.54.69-1.24.8-2.79.29-4.11s-1.63-2.4-2.98-2.85c-.55-.18-1.16-.29-1.58-.68-.68-.64-.59-1.74-.36-2.65.23-.91.54-1.9.12-2.74-.65-1.31-2.56-1.34-3.62-2.34-1.22-1.16-.93-3.12-1.17-4.79-.42-3.01-3.05-5.57-6.07-5.91"/>
          <path class="cls-3" d="M146.97,156.21c-4.93-1.19-10.51,1.27-12.95,5.72-1.32,2.41-2,5.52-4.46,6.75-1.5.75-3.28.56-4.95.72-1.67.16-3.56.93-3.96,2.57-.4,1.65.86,3.67-.26,4.95-.71.82-1.98.77-2.99,1.2-2.03.86-2.61,3.5-2.39,5.69.22,2.2.95,4.42.43,6.56,2.23.68,4.49,1.37,6.82,1.49s4.78-.38,6.59-1.85c-.19.96.43,1.93,1.26,2.44s1.84.63,2.82.69c3.19.2,6.42-.16,9.49-1.06"/>
          <g>
            <g>
              <path class="cls-9" d="M157.94,202.81c-.06-4.17-.12-8.29-.12-8.29,0,0,6.74-.66,7.22-7.51.48-6.85.24-22.66.24-22.66l-12.2-6.28-13,10.53.53,34.65c.16,4.85,4.26,8.62,9.1,8.38h0c4.67-.23,8.31-4.12,8.24-8.8Z"/>
              <g>
                <path class="cls-4" d="M163.82,176.04c0,.48-.39.87-.86.87-.47,0-.85-.4-.85-.89,0-.48.39-.87.86-.87.47,0,.85.4.85.89Z"/>
                <path class="cls-4" d="M164.66,175.09c-.11.11-.74-.45-1.66-.51-.92-.07-1.62.39-1.71.26-.05-.06.07-.26.37-.47.3-.21.8-.4,1.38-.36.57.04,1.05.3,1.31.55.27.25.36.47.3.52Z"/>
              </g>
              <g>
                <path class="cls-4" d="M153.91,176.04c0,.48-.39.87-.86.87-.47,0-.85-.4-.85-.89,0-.48.39-.87.86-.87.47,0,.85.4.85.89Z"/>
                <path class="cls-4" d="M154.45,175.09c-.11.11-.74-.45-1.66-.51-.92-.07-1.62.39-1.71.26-.05-.06.07-.27.37-.47.3-.21.8-.4,1.38-.36.57.04,1.05.3,1.31.55.27.25.36.47.3.52Z"/>
              </g>
              <path class="cls-4" d="M157.69,182.8c0-.06.57-.12,1.51-.19.24-.01.46-.04.51-.21.06-.18-.02-.46-.12-.76-.19-.62-.4-1.28-.61-1.96-.85-2.79-1.45-5.09-1.34-5.12.1-.03.88,2.2,1.72,5,.2.69.4,1.35.58,1.97.08.29.22.63.08,1-.07.18-.25.31-.4.34-.15.04-.28.03-.4.03-.93,0-1.51-.04-1.51-.1Z"/>
              <path class="cls-3" d="M129.86,174.85c.07-.49-.07.53.03-.23,0,0,0,0,0,0h0c.13-1.06.28-2.17.44-2.78,3.79-14.26,16.06-16.8,18.49-16.77,2.6.03,10.03-.19,14.16,4.99,5.46,6.84,2.37,13.61,2.37,13.61h0l-10.83-1.92c.8-2.7-.3-6.07-.93-7.64l-.06-.06c-2.06,10.24-13.09,12.54-13.09,12.54l-.13,15.01c-8.04-1.16-10.64-10.81-10.45-16.75h0Z"/>
            </g>
            <g>
              <path class="cls-9" d="M140.57,182.82c.07-1.03.54-3.49.2-4.46-.34-.97-1.42-1.19-2.61-1.18-1.19.01-2.61,1.1-2.57,2.56.03,1.18.43,2.4,1.44,3.01,1.02.61,2.33.63,3.43.19"/>
              <path class="cls-12" d="M139.29,181.47c-.04-.07-.34.07-.77-.07-.44-.12-.87-.63-.89-1.34-.02-.35.07-.67.24-.82.18-.16.46-.2.68-.18.46.05.78.19.81.11.02-.05-.2-.29-.75-.47-.27-.07-.67-.1-1.04.17-.37.29-.48.78-.46,1.21.02.44.17.86.43,1.17.25.31.61.47.9.51.61.08.9-.25.85-.28Z"/>
            </g>
          </g>
          <path class="cls-4" d="M157.63,184.78s.17-.31.64-.2c.22.05.5.24.59.57.09.31,0,.72-.32.97-.34.24-.76.19-1.03,0-.29-.19-.38-.54-.33-.76.09-.48.45-.56.46-.49.04.06-.12.23-.09.51.02.14.08.27.22.34.13.07.34.07.46-.02.13-.09.19-.29.16-.44-.02-.15-.12-.27-.25-.34-.25-.14-.48-.08-.51-.14Z"/>
          <path class="cls-4" d="M154.99,172.38c-.03.15-1.04,0-2.22.28-1.19.26-2.03.83-2.12.71-.1-.09.68-.92,2.01-1.22,1.32-.31,2.39.1,2.34.23Z"/>
          <path class="cls-3" d="M150.56,155.16s-.41-.01-1.13,0c-.72.01-1.76.14-2.96.58-1.19.44-2.54,1.22-3.74,2.4-1.2,1.18-2.22,2.78-2.92,4.6-1.41,3.68-1.38,7.34-1.34,9.91.04,1.21.08,2.24.11,3.08.03.73.03,1.13-.01,1.13-.04,0-.1-.4-.19-1.12-.09-.72-.2-1.77-.28-3.08-.08-1.3-.12-2.86.01-4.6.13-1.73.48-3.64,1.21-5.52.73-1.88,1.8-3.54,3.07-4.75,1.27-1.22,2.7-1.99,3.95-2.41,1.26-.41,2.35-.48,3.09-.43.37.03.65.06.84.11.19.04.29.07.28.09Z"/>
        </g>
        <path class="cls-12" d="M158.56,194.36c0,.06-.6.23-1.61.3-1.01.06-2.44,0-3.94-.45-1.5-.44-2.73-1.22-3.48-1.91-.76-.69-1.07-1.25-1.03-1.28.07-.05.48.41,1.26,1,.78.59,1.96,1.28,3.39,1.7,2.88.87,5.39.47,5.4.65Z"/>
      </g>
      <g>
        <path class="cls-9" d="M125.39,238.58l7.91.44c.5,2.56,2.24,6.49,2.24,6.49,6.37-11.05,11.31-25.86,12.53-31.82-.18-.59-.39-1.25-.65-1.99-.3-.85-.04-2.46.1-3.35.21-1.33.58-3.11.7-3.93.34-2.51.74-2.91,1.62-2.63,1.19.39-.49,7.06.49,7.21.53.08,1.17-2.21,1.35-4.09.19-1.88,1.04-7.65,1.66-8.03.91-.56,1.7.33,1.47,2.2-.23,1.89-.53,7.53.47,7.61.98.08,1.8-9.5,1.8-9.5,0,0-.15-2.08.99-2.03,2.07.09.45,10.18.28,11.14-.12.66.95.79,1.05.07.1-.74.6-9.57,2.71-9.5,1.62.05-1.25,8.32-.35,10.23.91,1.91,1.54-6.5,3.09-6.39.58.04,1,.16-.06,4.92-.57,2.56-2.24,7.27-3.7,11.17-2.45,13.21-13.2,55.47-30.05,47.73-9.43-4.33-13.83-25.76-13.83-25.76l8.19-.18Z"/>
        <path class="cls-12" d="M158.85,206.85s-.08.01-.22-.03c-.13-.04-.38-.2-.34-.53.02-.57.11-1.39.24-2.46.1-1.08.42-2.37.42-3.89.01-.77,0-1.59-.05-2.46-.03-.44-.04-.89-.13-1.32-.07-.41-.35-.89-.67-.83h-.04s-.02,0-.02,0c-.33-.02-.58.24-.68.63-.11.37-.14.81-.12,1.22v.02s0,.01,0,.01c-.21,2.34-.44,4.9-.98,7.63-.07.34-.15.69-.26,1.03-.05.17-.11.35-.19.52-.05.09-.08.18-.16.27-.06.08-.15.22-.38.24-.38-.03-.49-.32-.58-.48-.08-.19-.13-.38-.17-.56-.08-.37-.12-.74-.15-1.12-.1-1.49-.05-3.01.06-4.57.04-.79.23-1.58.1-2.29-.06-.35-.21-.71-.45-.85-.12-.07-.25-.09-.39-.05-.07.02-.14.05-.22.09-.06.06-.05.03-.1.13-.31.65-.46,1.51-.63,2.3-.16.81-.3,1.63-.43,2.47-.13.83-.25,1.68-.35,2.53-.08.85-.21,1.74-.42,2.6-.11.43-.23.86-.41,1.29-.09.21-.19.43-.38.65-.07.09-.28.27-.55.2-.26-.09-.33-.29-.37-.41-.15-.53-.1-.96-.1-1.42.02-.45.06-.9.1-1.35.07-.77.14-1.53.17-2.28.01-.37.01-.75-.03-1.1-.02-.17-.05-.35-.11-.48-.03-.06-.06-.11-.09-.14-.01-.02-.02,0-.04-.02l-.12-.03c-.61-.25-.81.59-.97,1.27-.14.71-.23,1.44-.37,2.16-.24,1.44-.55,2.87-.71,4.25-.07.68-.12,1.39.08,1.97.22.66.43,1.31.64,1.96l.02.06v.06c-1.13,4.92-2.67,9.31-4.1,13.22-1.45,3.9-2.89,7.27-4.17,10.03-1.27,2.76-2.42,4.89-3.2,6.34-.4.69-.72,1.23-.95,1.63-.22.37-.34.56-.35.55-.01,0,.08-.21.28-.59.22-.41.51-.97.88-1.67.74-1.47,1.84-3.61,3.07-6.39,1.24-2.77,2.64-6.15,4.06-10.05,1.4-3.9,2.92-8.31,4-13.17v.12c-.21-.64-.42-1.28-.64-1.93-.25-.75-.17-1.47-.11-2.19.16-1.43.46-2.82.7-4.27.14-.72.23-1.45.38-2.2.09-.37.17-.75.37-1.13.1-.18.25-.39.5-.51.26-.11.52-.08.72-.03l.15.04c.07.03.15.07.21.12.12.1.18.22.23.33.1.22.12.42.15.62.05.4.04.79.03,1.18-.03.78-.1,1.54-.17,2.31-.04.45-.08.89-.09,1.33-.02.43-.03.9.07,1.23.02.1.07.08.02.12h0s0,.05,0,.04h0s0-.03,0-.04c0,0-.02-.04-.01-.04,0,0,.03-.02.05-.05.1-.12.2-.31.28-.5.16-.38.28-.8.39-1.21.21-.84.33-1.67.41-2.53.1-.86.22-1.71.35-2.55.13-.84.28-1.67.44-2.49.19-.82.31-1.62.69-2.44.02-.08.19-.27.29-.32.1-.06.22-.11.34-.14.25-.07.55-.04.77.11.45.3.59.78.68,1.19.07.43.06.85.02,1.25-.05.39-.08.77-.11,1.16-.12,1.54-.17,3.05-.08,4.5.03.36.06.72.13,1.06.03.17.08.33.14.47.03.07.07.13.1.17.03.08.06-.02.06.11-.05-.09,0-.04.03-.12.04-.04.07-.13.11-.19.06-.15.12-.31.17-.47.1-.32.18-.66.25-.99.54-2.68.8-5.25,1.03-7.57v.03c-.02-.47.01-.92.15-1.36.07-.22.17-.44.36-.61.18-.18.44-.25.68-.25h-.05c.37-.06.64.16.79.38.16.23.23.47.28.71.1.48.1.94.12,1.37.03.88.04,1.71.01,2.48-.03,1.56-.38,2.85-.5,3.91-.16,1.06-.28,1.89-.33,2.44-.06.26.15.43.27.48.13.06.2.06.2.07Z"/>
      </g>
    </g>
  </g>
  <g id="Plant">
    <g>
      <path class="cls-6" d="M343.78,350.9c-15.55-10.87-19.08-31.03-18.47-49.16.1-3.03-.23-6.22,1.21-8.87,1.44-2.65,4.8-4.47,7.51-3.19,2.25,1.06,3.23,3.67,4.48,5.83,1.67,2.88,4.16,5.26,7.1,6.78,1.93,1,4.31,1.61,6.21.56,2.61-1.44,2.92-5.05,2.9-8.06-.04-5.61-.07-11.22-.11-16.83-.02-3.01-.03-6.08.91-8.94.94-2.86,3-5.51,5.87-6.31,2.86-.8,6.4.85,7.01,3.79.25,1.23,0,2.5.09,3.75.08,1.25.67,2.63,1.85,2.98,1.2.35,2.41-.5,3.31-1.38,3.11-3.04,5.21-6.95,7.18-10.85,1.97-3.89,3.88-7.88,6.7-11.19,2.82-3.31,6.72-5.94,11.03-6.19,4.31-.24,8.9,2.42,9.99,6.65,1.09,4.24-1.38,8.55-4.08,11.98-4,5.1-8.72,9.6-13.99,13.33-.95.67-1.98,1.4-2.34,2.52-.65,2.01,1.25,4,3.23,4.66,2.24.75,4.68.51,7.02.79,2.35.28,4.89,1.31,5.78,3.53,1.23,3.08-1.34,6.3-3.87,8.41-5.07,4.23-10.86,7.57-17.03,9.83-2.21.81-4.54,1.52-6.33,3.08-1.79,1.56-2.86,4.26-1.78,6.38,1.08,2.12,3.85,2.8,6.17,2.37,2.32-.43,4.39-1.69,6.6-2.52,4.14-1.56,9.48-1.28,12.13,2.3,1.74,2.35,1.89,5.62,1.01,8.42-.88,2.8-2.67,5.21-4.56,7.44-6.63,7.78-15.12,14.04-24.71,17.37-9.59,3.33-18.48,4.23-28.02.74"/>
      <path class="cls-4" d="M343.54,364.34c.66-7.18,2.23-15.66,4.92-24.81,2.67-9.15,6.42-18.93,10.71-29.04,1.08-2.52,2.15-5.01,3.2-7.47,1.06-2.45,2.1-4.88,3.27-7.19,2.32-4.63,4.9-8.91,7.48-12.9,2.58-3.99,5.17-7.68,7.62-11.11,2.46-3.43,4.81-6.58,7.07-9.36,4.51-5.58,8.68-9.65,11.65-12.32,1.48-1.34,2.67-2.34,3.48-3.01.39-.32.7-.57.93-.76.21-.17.32-.25.33-.24,0,0-.09.1-.29.29-.22.2-.52.46-.89.8-.79.7-1.95,1.72-3.41,3.09-2.92,2.72-7.03,6.81-11.5,12.41-2.24,2.79-4.57,5.95-7,9.38-2.43,3.44-5.01,7.14-7.57,11.12-2.56,3.98-5.12,8.25-7.43,12.86-1.16,2.3-2.19,4.71-3.25,7.16-1.05,2.45-2.11,4.94-3.19,7.46-4.28,10.09-8.04,19.85-10.73,28.96-2.7,9.11-4.31,17.54-5.02,24.7"/>
      <path class="cls-4" d="M365.79,295.82s-.14-.45-.29-1.28c-.16-.83-.35-2.04-.56-3.54-.43-3-.87-7.16-1.35-11.74-.47-4.59-.98-8.73-1.45-11.71-.23-1.49-.43-2.7-.58-3.53-.14-.83-.21-1.3-.17-1.31.04,0,.17.44.38,1.26.21.82.47,2.02.75,3.51.57,2.98,1.14,7.13,1.61,11.72.46,4.53.87,8.62,1.19,11.75.15,1.41.28,2.6.38,3.56.09.84.12,1.31.08,1.32Z"/>
      <path class="cls-4" d="M404.49,288.59s-.55.1-1.54.18c-.99.09-2.43.21-4.2.41-3.54.38-8.42,1.08-13.77,2.09-5.35,1.02-10.15,2.14-13.59,3.06-1.73.45-3.12.84-4.08,1.11-.96.27-1.5.41-1.51.37-.01-.04.5-.24,1.45-.58.94-.33,2.32-.79,4.04-1.29,3.43-1.02,8.23-2.21,13.6-3.23,5.36-1.01,10.27-1.65,13.83-1.93,1.78-.16,3.23-.22,4.23-.24,1-.02,1.55,0,1.55.03Z"/>
      <path class="cls-4" d="M348.94,338.82s-.11-.15-.27-.47c-.18-.38-.4-.84-.66-1.4-.57-1.22-1.35-3-2.28-5.22-1.87-4.43-4.25-10.64-6.79-17.52-2.54-6.88-4.87-13.1-6.64-17.57-.87-2.17-1.58-3.96-2.11-5.28-.23-.58-.41-1.05-.57-1.44-.12-.33-.18-.51-.16-.52.02,0,.11.16.27.47.18.38.4.84.66,1.4.57,1.22,1.35,3,2.28,5.22,1.87,4.43,4.25,10.64,6.79,17.52,2.54,6.88,4.87,13.1,6.64,17.57.87,2.17,1.58,3.96,2.11,5.28.23.58.41,1.05.57,1.44.12.33.18.51.16.52Z"/>
      <path class="cls-4" d="M400.36,322.25s-.17.09-.51.21c-.4.13-.9.3-1.49.5-1.38.45-3.24,1.05-5.51,1.78-4.65,1.51-11.05,3.66-18.11,6.06-7.07,2.39-13.49,4.49-18.17,5.9-2.34.71-4.24,1.26-5.56,1.61-.61.16-1.11.29-1.52.4-.35.09-.54.12-.54.1,0-.02.17-.09.51-.21.4-.13.89-.3,1.49-.5,1.38-.45,3.24-1.05,5.51-1.78,4.65-1.51,11.05-3.66,18.12-6.06,7.07-2.39,13.49-4.49,18.17-5.9,2.34-.71,4.24-1.26,5.56-1.61.61-.16,1.11-.29,1.52-.4.35-.09.54-.12.54-.1Z"/>
    </g>
  </g>
  <g id="Device">
    <g>
      <path class="cls-4" d="M325.39,395.78l-107.88-.5c-12.98-.06-23.45-10.62-23.39-23.6l1.14-270.47c.05-12.98,10.63-23.46,23.61-23.4l107.89.5c12.98.06,23.45,10.62,23.39,23.6l-1.14,270.47c-.05,12.98-10.63,23.46-23.61,23.4Z"/>
      <path class="cls-10" d="M326.6,87.1l-20.92-.1c-2.8-.01-5.09,2.35-5.1,5.29l-.02,3.79c-.01,2.93-2.3,5.3-5.1,5.29l-40.77-.19c-2.8-.01-5.07-2.4-5.06-5.33l.02-3.79c.01-2.93-2.25-5.32-5.06-5.33l-7.36-.03-18.31-.08c-9.09-.04-16.5,7.3-16.53,16.39l-1.12,264c-.04,9.09,7.3,16.49,16.38,16.53l107.67.5c9.09.04,16.5-7.3,16.53-16.39l1.12-264c.04-9.09-7.3-16.49-16.38-16.53Z"/>
    </g>
    <rect class="cls-11" x="206.03" y="139.89" width="132.21" height="183.34" rx="5.78" ry="5.78"/>
    <g>
      <g>
        <path class="cls-7" d="M258.44,181.35l-26.89,61.6c-3.56,8.15,2.98,17.12,11.83,16.22,18.68-1.89,46.68-4.78,66.08-6.79,9.63-.99,14.42-12.17,8.51-19.84l-41.21-53.45c-4.98-6.46-15.06-5.22-18.32,2.26Z"/>
        <g class="cls-14">
          <path class="cls-8" d="M259.82,185.48s.05-.21.22-.6c.09-.19.19-.44.34-.72.17-.27.38-.57.6-.92.24-.34.57-.67.91-1.07.4-.33.79-.75,1.32-1.07,1-.72,2.33-1.31,3.92-1.59,1.58-.27,3.44-.19,5.29.51.9.39,1.83.86,2.65,1.56.2.17.41.35.62.53.19.19.37.41.56.61.39.41.71.84,1.06,1.28,2.74,3.49,5.85,7.47,9.29,11.86,6.86,8.82,15.02,19.31,24.08,30.96,1.13,1.46,2.27,2.94,3.43,4.44,1.23,1.59,2.04,3.54,2.32,5.58.57,4.09-1.17,8.54-4.65,11.11-1.72,1.3-3.83,2.09-5.98,2.31-2.03.21-4.08.42-6.14.64-4.13.42-8.31.86-12.55,1.29-8.48.86-16.75,1.71-24.74,2.52-4,.4-7.92.8-11.77,1.19-.96.1-1.92.19-2.87.29l-1.42.14-1.52.05c-2.02-.06-4.01-.69-5.65-1.78-3.33-2.15-5.26-6.02-5.11-9.76.05-.46.05-.93.13-1.39.1-.45.18-.91.3-1.35l.47-1.29c.16-.41.34-.79.51-1.18.68-1.55,1.36-3.08,2.02-4.58,2.66-6,5.13-11.59,7.39-16.7,4.53-10.2,8.22-18.45,10.81-24.13,1.3-2.82,2.31-5.02,3.01-6.53.7-1.49,1.1-2.26,1.15-2.23.05.02-.25.83-.86,2.36-.63,1.54-1.56,3.77-2.74,6.65-2.41,5.76-5.95,14.07-10.35,24.33-2.21,5.13-4.62,10.75-7.22,16.77-.65,1.51-1.31,3.04-1.98,4.6-.16.39-.35.78-.5,1.17l-.4,1.14c-.1.39-.17.79-.25,1.19-.08.4-.07.81-.11,1.21-.12,3.26,1.6,6.64,4.51,8.5,1.44.94,3.16,1.47,4.92,1.52l1.32-.05,1.42-.15c.95-.1,1.91-.2,2.87-.3,3.84-.4,7.77-.81,11.76-1.23,7.99-.83,16.26-1.68,24.74-2.56,4.24-.43,8.42-.86,12.55-1.28,2.06-.21,4.11-.42,6.14-.63,1.91-.2,3.72-.88,5.22-2,3.03-2.22,4.58-6.13,4.09-9.69-.23-1.78-.93-3.48-2.01-4.89-1.15-1.5-2.28-2.98-3.4-4.44-8.96-11.73-17.03-22.29-23.81-31.16-3.37-4.44-6.43-8.47-9.11-12-.33-.44-.66-.89-1-1.26-.17-.19-.33-.39-.5-.57-.19-.17-.38-.33-.56-.49-.74-.66-1.58-1.11-2.41-1.5-1.7-.69-3.43-.81-4.92-.6-1.5.21-2.78.73-3.76,1.37-.52.28-.9.67-1.3.97-.34.36-.68.67-.93.98-.24.32-.46.6-.65.85-.17.26-.29.49-.4.67-.22.36-.34.54-.36.53Z"/>
        </g>
        <path class="cls-2" d="M264.13,199.56l4.01,24.55c.33,2.01,2.1,3.45,4.13,3.37h0c2.14-.08,3.84-1.83,3.87-3.98l.28-25.1c.02-1.9-1.63-3.39-3.52-3.18l-6.02.68c-1.8.2-3.05,1.87-2.76,3.65Z"/>
        <path class="cls-2" d="M279.69,239.78c-.74,3.26-3.98,5.31-7.24,4.58-3.26-.74-5.31-3.98-4.58-7.24.74-3.26,3.98-5.31,7.24-4.58,3.26.74,5.31,3.98,4.58,7.24Z"/>
      </g>
      <g>
        <path class="cls-7" d="M229.83,166.78l-20.02,18.31c-2.65,2.42-1.71,6.8,1.7,7.92,7.2,2.37,18.01,5.89,25.49,8.34,3.72,1.21,7.32-2.12,6.39-5.92l-6.44-26.48c-.78-3.2-4.7-4.39-7.13-2.17Z"/>
        <g class="cls-14">
          <path class="cls-8" d="M229.66,168.53s.17-.34.75-.72c.57-.36,1.63-.76,2.97-.46.66.15,1.37.49,1.98,1.08.61.57,1.05,1.48,1.24,2.36.46,1.74.98,3.71,1.55,5.88,1.11,4.38,2.44,9.58,3.9,15.35.18.73.36,1.46.55,2.2.21.85.19,1.79-.06,2.67-.5,1.76-1.99,3.23-3.86,3.66-.93.22-1.93.16-2.83-.14-.78-.25-1.57-.51-2.37-.77-1.59-.52-3.21-1.05-4.84-1.58-3.27-1.07-6.46-2.12-9.54-3.14-1.54-.51-3.05-1.01-4.53-1.5-.37-.12-.74-.25-1.1-.37l-.55-.18-.62-.25c-.81-.39-1.5-1.01-1.96-1.74-.95-1.47-1.03-3.37-.29-4.85.18-.37.41-.71.67-1.02l.42-.43.39-.35c.51-.46,1.01-.91,1.51-1.35,1.98-1.76,3.82-3.4,5.5-4.91,3.37-2.99,6.12-5.39,8.05-7.02,1.92-1.63,3.02-2.5,3.09-2.42s-.89,1.1-2.68,2.87c-1.8,1.77-4.43,4.29-7.71,7.39-1.65,1.55-3.45,3.23-5.38,5.05-.48.45-.98.91-1.48,1.38l-.37.35-.3.32c-.18.23-.34.47-.47.74-.51,1.06-.43,2.43.26,3.47.34.52.82.94,1.4,1.21l.44.18.55.18c.37.12.74.24,1.11.36,1.48.48,3,.97,4.54,1.47,3.08,1,6.28,2.04,9.55,3.11,1.63.54,3.25,1.06,4.84,1.59.8.26,1.58.52,2.37.78.67.22,1.35.26,2.01.11,1.32-.28,2.41-1.35,2.77-2.59.19-.62.21-1.28.06-1.91-.17-.74-.35-1.47-.52-2.2-1.34-5.8-2.56-11.02-3.58-15.43-.49-2.19-.93-4.18-1.32-5.94-.16-.87-.45-1.52-.93-2.05-.47-.51-1.05-.83-1.6-1.01-1.13-.35-2.09-.1-2.66.15-.59.26-.85.5-.9.44Z"/>
        </g>
        <path class="cls-2" d="M228.94,174.43l-2.55,9.71c-.21.79.21,1.62.97,1.92h0c.8.32,1.72-.05,2.08-.83l4.22-9.21c.32-.7-.04-1.52-.78-1.75l-2.33-.74c-.7-.22-1.43.19-1.62.89Z"/>
        <path class="cls-2" d="M228.08,191.82c-.81,1.08-2.34,1.31-3.42.5s-1.31-2.34-.5-3.42c.81-1.08,2.34-1.31,3.42-.5,1.08.81,1.31,2.34.5,3.42Z"/>
      </g>
      <g>
        <path class="cls-7" d="M306.67,172.46l-4.54,20.71c-.6,2.74,1.97,5.11,4.65,4.29,5.66-1.73,14.15-4.34,20.03-6.15,2.92-.9,3.72-4.65,1.42-6.66l-16.03-14.01c-1.94-1.69-4.98-.69-5.53,1.82Z"/>
        <g class="cls-14">
          <path class="cls-8" d="M307.35,173.65s-.07-.3.13-.81c.19-.5.69-1.25,1.7-1.68.5-.21,1.12-.32,1.79-.22.66.08,1.38.49,1.91.96,1.08.9,2.31,1.92,3.65,3.04,2.7,2.29,5.88,5.01,9.42,8.01.44.38.89.77,1.34,1.16.54.47.97,1.1,1.21,1.8.49,1.4.19,3.08-.85,4.24-.51.58-1.21,1.01-1.94,1.24-.62.19-1.24.38-1.86.58-1.25.39-2.52.78-3.8,1.17-2.57.78-5.08,1.55-7.5,2.29-1.21.37-2.4.72-3.57,1.08l-.87.26-.43.13-.53.12c-.72.12-1.47.03-2.12-.24-1.32-.53-2.26-1.76-2.46-3.09-.05-.33-.05-.66-.03-.99l.08-.48.09-.4c.12-.52.24-1.03.36-1.54.48-2.01.92-3.89,1.33-5.6.82-3.42,1.52-6.19,2.03-8.09.51-1.9.85-2.94.95-2.92.11.02-.03,1.11-.36,3.05-.33,1.94-.86,4.74-1.54,8.2-.35,1.73-.73,3.62-1.14,5.65-.1.51-.21,1.02-.32,1.55l-.08.39-.04.32c0,.22,0,.43.04.65.15.85.78,1.65,1.64,1.97.42.17.89.21,1.35.13l.34-.08.43-.13.87-.27c1.16-.36,2.35-.74,3.56-1.11,2.42-.75,4.93-1.52,7.49-2.32,1.28-.39,2.55-.78,3.8-1.16.63-.19,1.25-.38,1.86-.57.5-.15.93-.42,1.26-.78.67-.73.88-1.83.58-2.74-.15-.45-.41-.86-.77-1.18-.44-.39-.88-.78-1.31-1.17-3.46-3.1-6.57-5.9-9.2-8.27-1.29-1.19-2.46-2.26-3.5-3.21-.9-.97-2.05-1.1-2.91-.82-.86.27-1.37.84-1.63,1.25-.26.42-.34.69-.41.67Z"/>
        </g>
        <path class="cls-2" d="M309.55,177.74l2.75,7.35c.22.6.86.94,1.49.79h0c.66-.16,1.08-.8.95-1.47l-1.45-7.78c-.11-.59-.71-.95-1.28-.77l-1.82.58c-.54.17-.83.77-.63,1.3Z"/>
        <path class="cls-2" d="M316.83,189.23c-.03,1.05-.9,1.89-1.96,1.86-1.05-.03-1.89-.9-1.86-1.96.03-1.05.9-1.89,1.96-1.86,1.05.03,1.89.9,1.86,1.96Z"/>
      </g>
      <path class="cls-4" d="M221.71,264.14s-.27-.21-.7-.65c-.22-.22-.48-.49-.74-.84-.27-.34-.6-.72-.9-1.18-.65-.9-1.3-2.04-1.92-3.37-.59-1.34-1.12-2.86-1.49-4.51-.35-1.65-.49-3.26-.5-4.73.02-1.46.14-2.78.36-3.86.08-.55.23-1.03.33-1.45.1-.43.22-.78.33-1.07.21-.58.34-.89.38-.88.09.03-.36,1.31-.68,3.46-.17,1.07-.26,2.36-.25,3.8.04,1.43.19,3,.53,4.62.36,1.61.87,3.11,1.42,4.43.58,1.31,1.19,2.45,1.79,3.36,1.18,1.83,2.12,2.81,2.04,2.88Z"/>
      <path class="cls-4" d="M230.42,265.4s-.32-.16-.86-.54c-.27-.18-.59-.42-.93-.74-.35-.31-.76-.64-1.16-1.07-.84-.82-1.72-1.9-2.59-3.18-.84-1.3-1.65-2.81-2.28-4.48-.62-1.68-1-3.35-1.22-4.88-.19-1.54-.23-2.94-.13-4.1.01-.59.11-1.11.17-1.57.05-.46.14-.85.22-1.17.15-.63.26-.98.29-.97.1.02-.24,1.42-.32,3.72-.05,1.15.03,2.52.24,4.02.24,1.5.63,3.12,1.23,4.77.62,1.64,1.4,3.12,2.2,4.4.83,1.27,1.67,2.35,2.46,3.19,1.56,1.69,2.74,2.52,2.68,2.6Z"/>
      <path class="cls-4" d="M323.43,254.75c-.09-.05.69-1.44,1.57-3.84.45-1.2.88-2.66,1.25-4.31.34-1.65.62-3.49.72-5.44.08-1.95-.01-3.8-.2-5.48-.21-1.67-.5-3.17-.83-4.41-.65-2.47-1.29-3.94-1.2-3.97.03-.01.21.34.51,1,.31.65.67,1.64,1.04,2.88.38,1.24.71,2.75.95,4.44.21,1.7.32,3.59.24,5.57-.1,1.98-.39,3.84-.77,5.52-.4,1.67-.87,3.14-1.37,4.33-.49,1.2-.95,2.14-1.32,2.76-.36.63-.57.96-.6.95Z"/>
      <path class="cls-4" d="M331.46,252.69c-.09-.05.54-1.18,1.21-3.15.34-.98.65-2.18.9-3.52.23-1.35.38-2.85.37-4.43-.02-1.58-.19-3.08-.44-4.42-.27-1.34-.6-2.53-.95-3.51-.7-1.95-1.34-3.09-1.25-3.13.03-.02.21.25.51.76.31.5.69,1.27,1.08,2.24.41.97.78,2.18,1.08,3.54.28,1.37.47,2.9.49,4.51,0,1.61-.17,3.15-.42,4.52-.28,1.37-.64,2.58-1.03,3.56-.38.98-.75,1.75-1.05,2.26-.29.51-.47.78-.5.77Z"/>
    </g>
    <rect class="cls-15" x="218.11" y="280.53" width="112.43" height="29.13" rx="4.22" ry="4.22"/>
    <rect class="cls-5" x="206.03" y="132.01" width="132.21" height="18.16"/>
    <circle class="cls-13" cx="214.17" cy="141.26" r="2.49"/>
    <circle class="cls-13" cx="224.38" cy="141.26" r="2.49"/>
    <path class="cls-13" d="M237.08,141.26c0,1.37-1.11,2.49-2.49,2.49s-2.49-1.11-2.49-2.49,1.11-2.49,2.49-2.49,2.49,1.11,2.49,2.49Z"/>
    <g>
      <path class="cls-3" d="M223.54,297.58v-2.46l-1.97-3.32h.81l1.54,2.66,1.51-2.66h.81l-1.96,3.32v2.46h-.74Z"/>
      <path class="cls-3" d="M229.06,297.66c-.51,0-.96-.12-1.34-.35-.38-.23-.67-.57-.87-1.01-.2-.44-.31-.97-.31-1.6s.1-1.17.31-1.61c.21-.44.5-.78.87-1.02.38-.24.82-.35,1.33-.35s.95.12,1.33.35.66.57.86,1.02c.2.44.3.98.3,1.62s-.1,1.16-.3,1.6c-.2.44-.49.78-.86,1.01-.37.23-.82.35-1.33.35ZM229.06,297.02c.36,0,.66-.08.91-.24.25-.16.44-.42.57-.76.13-.34.2-.78.2-1.31s-.07-.98-.2-1.33c-.13-.35-.33-.6-.58-.77-.25-.17-.55-.25-.91-.25s-.65.08-.91.25-.45.42-.58.77c-.14.35-.2.79-.2,1.32s.07.97.2,1.31c.14.34.33.59.58.76.25.16.56.24.91.24Z"/>
      <path class="cls-3" d="M234.74,297.66c-.5,0-.91-.08-1.22-.25-.31-.17-.54-.41-.68-.73-.14-.32-.21-.71-.21-1.18v-3.71h.77v3.82c0,.47.12.82.35,1.05s.56.35,1,.35c.29,0,.54-.05.74-.15.2-.1.36-.26.47-.46.11-.21.16-.47.16-.78v-3.82h.74v3.78c0,.45-.07.82-.22,1.13s-.38.54-.69.71-.71.24-1.21.24Z"/>
      <path class="cls-3" d="M239.74,297.58l2.09-5.78h.84l2.09,5.78h-.76l-.57-1.58h-2.37l-.57,1.58h-.75ZM241.26,295.32h1.97l-.98-2.8-.99,2.8Z"/>
      <path class="cls-3" d="M245.86,297.58v-5.78h2.24c.42,0,.76.06,1.04.19.28.13.49.31.63.54.14.24.21.52.21.85s-.05.58-.17.78c-.11.21-.25.38-.42.5s-.35.22-.53.29l1.14,2.62h-.78l-1.06-2.49h-1.56v2.49h-.74ZM246.6,294.48h1.26c.43,0,.77-.09,1.01-.27.24-.18.36-.44.36-.79s-.11-.6-.32-.77c-.21-.17-.5-.25-.87-.25h-1.44v2.08Z"/>
      <path class="cls-3" d="M251.27,297.58v-5.78h3.65v.65h-2.9v1.89h2.61v.65h-2.62v1.93h2.98v.67h-3.72Z"/>
      <path class="cls-3" d="M258.18,297.58v-5.78h.71l3.06,4.5v-4.5h.74v5.78h-.66l-3.1-4.56v4.56h-.74Z"/>
      <path class="cls-3" d="M266.39,297.66c-.51,0-.96-.12-1.34-.35-.38-.23-.67-.57-.87-1.01s-.31-.97-.31-1.6.1-1.17.31-1.61c.21-.44.5-.78.87-1.02.38-.24.82-.35,1.33-.35s.95.12,1.33.35c.37.23.66.57.86,1.02.2.44.3.98.3,1.62s-.1,1.16-.3,1.6-.49.78-.86,1.01c-.37.23-.82.35-1.33.35ZM266.39,297.02c.36,0,.66-.08.91-.24.25-.16.44-.42.57-.76.13-.34.2-.78.2-1.31s-.07-.98-.2-1.33c-.13-.35-.33-.6-.58-.77-.25-.17-.55-.25-.91-.25s-.66.08-.91.25c-.25.17-.45.42-.58.77s-.2.79-.2,1.32.07.97.2,1.31c.14.34.33.59.58.76.25.16.56.24.91.24Z"/>
      <path class="cls-3" d="M271.45,297.58v-5.1h-1.87v-.68h4.38v.68h-1.76v5.1h-.74Z"/>
      <path class="cls-3" d="M276.42,297.58l2.09-5.78h.84l2.09,5.78h-.76l-.57-1.58h-2.37l-.57,1.58h-.75ZM277.94,295.32h1.97l-.98-2.8-.99,2.8Z"/>
      <path class="cls-3" d="M284.36,297.66c-.5,0-.91-.08-1.22-.25s-.54-.41-.68-.73c-.14-.32-.21-.71-.21-1.18v-3.71h.77v3.82c0,.47.12.82.35,1.05.23.23.56.35,1,.35.29,0,.54-.05.74-.15s.36-.26.47-.46c.11-.21.16-.47.16-.78v-3.82h.74v3.78c0,.45-.07.82-.22,1.13-.15.31-.38.54-.69.71s-.71.24-1.21.24Z"/>
      <path class="cls-3" d="M289.14,297.58v-5.1h-1.87v-.68h4.38v.68h-1.76v5.1h-.74Z"/>
      <path class="cls-3" d="M292.6,297.58v-5.78h.74v2.46h3.12v-2.46h.74v5.78h-.74v-2.67h-3.12v2.67h-.74Z"/>
      <path class="cls-3" d="M300.91,297.66c-.51,0-.96-.12-1.34-.35-.38-.23-.67-.57-.87-1.01s-.31-.97-.31-1.6.1-1.17.31-1.61c.21-.44.5-.78.87-1.02.38-.24.82-.35,1.33-.35s.95.12,1.33.35c.37.23.66.57.86,1.02.2.44.3.98.3,1.62s-.1,1.16-.3,1.6-.49.78-.86,1.01c-.37.23-.82.35-1.33.35ZM300.91,297.02c.36,0,.66-.08.91-.24.25-.16.44-.42.57-.76.13-.34.2-.78.2-1.31s-.07-.98-.2-1.33c-.13-.35-.33-.6-.58-.77-.25-.17-.55-.25-.91-.25s-.66.08-.91.25c-.25.17-.45.42-.58.77s-.2.79-.2,1.32.07.97.2,1.31c.14.34.33.59.58.76.25.16.56.24.91.24Z"/>
      <path class="cls-3" d="M304.6,297.58v-5.78h2.24c.42,0,.76.06,1.04.19.28.13.49.31.63.54.14.24.21.52.21.85s-.05.58-.17.78c-.11.21-.25.38-.42.5s-.35.22-.53.29l1.14,2.62h-.78l-1.06-2.49h-1.56v2.49h-.74ZM305.34,294.48h1.26c.43,0,.77-.09,1.01-.27.24-.18.36-.44.36-.79s-.11-.6-.32-.77c-.21-.17-.5-.25-.87-.25h-1.44v2.08Z"/>
      <path class="cls-3" d="M310.02,297.58v-5.78h.74v5.78h-.74Z"/>
      <path class="cls-3" d="M312.02,297.58v-.41l3.17-4.73h-3.03v-.64h4.07v.39l-3.2,4.74h3.18v.65h-4.19Z"/>
      <path class="cls-3" d="M317.38,297.58v-5.78h3.65v.65h-2.9v1.89h2.61v.65h-2.62v1.93h2.98v.67h-3.72Z"/>
      <path class="cls-3" d="M322.39,297.58v-5.78s.08,0,.17,0c.09,0,.21,0,.35,0,.14,0,.28,0,.42,0,.15,0,.28,0,.4,0,.71.01,1.28.13,1.73.35.44.22.77.54.97.96.21.42.31.93.31,1.54s-.11,1.18-.33,1.61c-.22.44-.56.76-1.02.98-.45.22-1.03.33-1.73.33h-1.27ZM323.15,296.94h.51c.48,0,.89-.07,1.23-.22.34-.15.61-.39.79-.72.19-.33.28-.78.28-1.34s-.09-1-.27-1.32c-.18-.33-.44-.56-.78-.7-.34-.14-.75-.21-1.22-.21h-.54v4.51Z"/>
    </g>
  </g>
  <g id="Speech_Bubble" data-name="Speech Bubble">
    <g>
      <path class="cls-4" d="M129.18,164.79c-1.04-.25-6.03-1.48-15.68-3.85l.12-.02c-3.45,2.2-8.12,3.97-13.53,4.06-2.69,0-5.54-.33-8.39-1.22-2.84-.89-5.63-2.35-8.17-4.33-5.08-3.93-9.03-10.23-9.89-17.47-.44-3.6-.14-7.39.98-11.01,1.14-3.61,3.11-7.04,5.76-9.92,1.34-1.52,2.93-2.79,4.54-3.96.85-.52,1.68-1.07,2.56-1.53l1.33-.64.66-.32.69-.25c3.65-1.42,7.54-1.96,11.27-1.72,3.74.24,7.31,1.29,10.44,2.93,3.14,1.64,5.82,3.87,7.93,6.41,2.12,2.53,3.65,5.37,4.63,8.23.98,2.86,1.42,5.74,1.45,8.47.03,5.47-1.68,10.16-3.76,13.58v-.14c4.36,7.87,6.56,11.84,7.05,12.72-.5-.87-2.78-4.8-7.29-12.58l-.04-.07.04-.07c2.03-3.41,3.68-8.05,3.62-13.44-.04-2.68-.49-5.52-1.47-8.33-.97-2.81-2.5-5.59-4.58-8.07-2.08-2.48-4.73-4.67-7.81-6.27-3.08-1.61-6.59-2.63-10.25-2.86-3.66-.24-7.47.3-11.05,1.7l-.68.25-.65.31-1.31.63c-.86.45-1.67.99-2.51,1.5-1.58,1.15-3.13,2.39-4.45,3.88-2.6,2.83-4.53,6.18-5.65,9.72-1.1,3.55-1.39,7.26-.97,10.8.83,7.11,4.69,13.3,9.67,17.17,2.49,1.95,5.23,3.41,8.02,4.29,2.79.89,5.6,1.22,8.25,1.24,5.34-.06,9.95-1.77,13.38-3.92l.05-.03.06.02c9.61,2.55,14.58,3.87,15.61,4.14Z"/>
      <path class="cls-7" d="M97.51,127.12l.83,13.1c.07,1.07.92,1.92,1.99,1.99h0c1.13.07,2.11-.76,2.24-1.89l1.45-13.16c.11-1-.68-1.86-1.68-1.85l-3.19.04c-.95.01-1.7.82-1.64,1.77Z"/>
      <path class="cls-7" d="M103.8,149.57c-.56,1.68-2.37,2.58-4.04,2.03-1.68-.56-2.58-2.37-2.03-4.04.56-1.68,2.37-2.58,4.04-2.03,1.68.56,2.58,2.37,2.03,4.04Z"/>
    </g>
  </g>
</svg>