<svg width="54" height="46" viewBox="0 0 54 46" fill="none" xmlns="http://www.w3.org/2000/svg">
<path d="M39.5947 22.5511L31.6566 26.733C30.7946 27.1871 29.8368 27.4293 28.8626 27.4397C27.8884 27.45 26.9257 27.2281 26.0543 26.7924L18.7673 23.1489V23.324C18.7669 23.6877 18.6222 24.0365 18.365 24.2937C18.1078 24.5509 17.759 24.6956 17.3953 24.696H13.7366C13.6153 24.696 13.499 24.6478 13.4132 24.562C13.3275 24.4763 13.2793 24.3599 13.2793 24.2386C13.2793 24.1174 13.3275 24.001 13.4132 23.9153C13.499 23.8295 13.6153 23.7813 13.7366 23.7813H17.3953C17.5166 23.7812 17.6328 23.733 17.7186 23.6472C17.8043 23.5615 17.8525 23.4452 17.8526 23.324V13.2627C17.8525 13.1414 17.8043 13.0251 17.7186 12.9394C17.6328 12.8537 17.5166 12.8054 17.3953 12.8053H13.7366C13.6153 12.8053 13.499 12.7571 13.4132 12.6714C13.3275 12.5856 13.2793 12.4693 13.2793 12.348C13.2793 12.2267 13.3275 12.1104 13.4132 12.0246C13.499 11.9388 13.6153 11.8907 13.7366 11.8907H17.3953C17.759 11.8911 18.1078 12.0357 18.365 12.2929C18.6222 12.5502 18.7669 12.8989 18.7673 13.2627H22.2053C23.3395 13.2641 24.4401 13.6474 25.3298 14.3506L30.6785 18.5892C31.1599 18.9709 31.4741 19.5248 31.5547 20.1338L38.1472 18.6356C38.6454 18.5225 39.1677 18.5943 39.6168 18.8377C40.0659 19.0811 40.4111 19.4795 40.5883 19.9587C40.7654 20.4378 40.7623 20.965 40.5795 21.442C40.3967 21.919 40.0467 22.313 39.5947 22.5511ZM39.743 20.3118C39.6502 20.031 39.456 19.795 39.1983 19.6499C38.9407 19.5048 38.6382 19.461 38.35 19.5273L31.4968 21.0849C31.4028 21.4338 31.2308 21.7568 30.9939 22.0296C30.7569 22.3024 30.4611 22.5178 30.1288 22.6597C29.7965 22.8016 29.4363 22.8662 29.0754 22.8487C28.7145 22.8311 28.3623 22.7319 28.0453 22.5585L22.6638 19.6091C22.6111 19.5802 22.5646 19.5413 22.527 19.4944C22.4894 19.4476 22.4614 19.3939 22.4445 19.3362C22.4277 19.2786 22.4224 19.2182 22.4289 19.1585C22.4354 19.0987 22.4536 19.0409 22.4824 18.9882C22.5407 18.8819 22.6389 18.803 22.7553 18.769C22.8129 18.7522 22.8733 18.7468 22.9331 18.7533C22.9928 18.7598 23.0506 18.778 23.1033 18.8069L28.4847 21.7564C28.7849 21.9202 29.1326 21.9749 29.4686 21.9112C29.8046 21.8475 30.1081 21.6693 30.3274 21.4069C30.4535 21.2557 30.5481 21.0809 30.6056 20.8926C30.663 20.7043 30.6822 20.5065 30.662 20.3107C30.6417 20.1149 30.5825 19.9251 30.4878 19.7526C30.393 19.58 30.2647 19.4282 30.1104 19.306L24.7617 15.0674C24.0337 14.4921 23.1332 14.1785 22.2053 14.1773H18.7673V22.1262L26.4633 25.9742C27.2069 26.338 28.0252 26.523 28.8529 26.5143C29.6806 26.5055 30.4949 26.3033 31.2305 25.9239L39.1686 21.7421C39.419 21.6111 39.6144 21.3952 39.7196 21.133C39.8249 20.8709 39.8332 20.5795 39.743 20.3118ZM31.2479 17.8735C31.3267 17.9359 31.4243 17.9699 31.5248 17.97C31.6071 17.9699 31.6878 17.9475 31.7584 17.9052C32.6694 17.5458 33.4675 16.9491 34.07 16.177C34.6724 15.4049 35.0572 14.4856 35.1843 13.5145C35.3114 12.5435 35.1762 11.5561 34.7928 10.655C34.4093 9.75384 33.7916 8.97178 33.0038 8.39002C32.216 7.80827 31.2869 7.44802 30.3128 7.34671C29.3387 7.2454 28.3553 7.40671 27.4646 7.8139C26.574 8.22108 25.8085 8.85928 25.2479 9.66223C24.6872 10.4652 24.3517 11.4036 24.2763 12.38C24.2714 12.44 24.2785 12.5004 24.297 12.5577C24.3155 12.615 24.3452 12.668 24.3843 12.7138C24.4234 12.7596 24.4712 12.7972 24.5248 12.8245C24.5785 12.8518 24.637 12.8683 24.6971 12.8729C24.7571 12.8775 24.8175 12.8702 24.8747 12.8514C24.9319 12.8327 24.9848 12.8028 25.0305 12.7635C25.0761 12.7242 25.1135 12.6763 25.1406 12.6225C25.1677 12.5688 25.1839 12.5102 25.1882 12.4501C25.2513 11.6335 25.5326 10.8489 26.0028 10.1783C26.4729 9.50768 27.1146 8.97569 27.8607 8.63796C28.6068 8.30022 29.43 8.16915 30.2441 8.25845C31.0582 8.34776 31.8334 8.65415 32.4885 9.14559C33.1437 9.63704 33.6548 10.2955 33.9684 11.0521C34.2819 11.8087 34.3865 12.6356 34.271 13.4464C34.1556 14.2572 33.8245 15.0222 33.3122 15.6612C32.7999 16.3002 32.1254 16.7899 31.3591 17.079C31.2834 17.1077 31.2166 17.156 31.1657 17.2189C31.1147 17.2819 31.0814 17.3573 31.0691 17.4374C31.0569 17.5174 31.0661 17.5993 31.0959 17.6746C31.1256 17.75 31.1749 17.8161 31.2385 17.8661L31.2479 17.8735ZM18.8679 8.06072C18.8292 8.01244 18.8007 7.95682 18.7842 7.89722C18.7676 7.83762 18.7633 7.77527 18.7715 7.71396C18.7798 7.65265 18.8004 7.59364 18.832 7.54051C18.8637 7.48738 18.9059 7.44124 18.9559 7.40486L28.6473 0.35672C28.9675 0.129025 29.3506 0.00668351 29.7435 0.00668351C30.1364 0.00668351 30.5196 0.129025 30.8397 0.35672L33.4019 2.22012V0.457333C33.4019 0.336041 33.4501 0.219716 33.5359 0.13395C33.6217 0.0481831 33.738 0 33.8593 0H37.5179C37.6392 0 37.7556 0.0481831 37.8413 0.13395C37.9271 0.219716 37.9753 0.336041 37.9753 0.457333V5.54626L40.5308 7.40486C40.5808 7.44124 40.623 7.48738 40.6547 7.54051C40.6864 7.59364 40.7069 7.65265 40.7152 7.71396C40.7234 7.77527 40.7191 7.83762 40.7025 7.89722C40.686 7.95682 40.6575 8.01244 40.6188 8.06072L39.2925 9.71627C39.219 9.80797 39.113 9.86783 38.9964 9.88342C38.8799 9.89901 38.7619 9.86914 38.6668 9.8L37.9753 9.29717V17.3787C37.9753 17.4999 37.9271 17.6163 37.8413 17.702C37.7556 17.7878 37.6392 17.836 37.5179 17.836C37.3967 17.836 37.2803 17.7878 37.1946 17.702C37.1088 17.6163 37.0606 17.4999 37.0606 17.3787V8.63188L29.7433 3.3094L22.426 8.63188V11.8907C22.426 12.0119 22.3778 12.1283 22.292 12.214C22.2062 12.2998 22.0899 12.348 21.9686 12.348C21.8473 12.348 21.731 12.2998 21.6452 12.214C21.5595 12.1283 21.5113 12.0119 21.5113 11.8907V9.29717L20.8199 9.80023C20.7249 9.86937 20.6068 9.89924 20.4903 9.88365C20.3738 9.86805 20.2678 9.8082 20.1942 9.7165L18.8679 8.06072ZM34.3166 2.88531L37.0606 4.88102V0.914666H34.3166V2.88531ZM19.8811 7.86265L20.635 8.80366L29.4744 2.3742C29.5525 2.31731 29.6467 2.28667 29.7433 2.28667C29.8399 2.28667 29.934 2.31731 30.0121 2.3742L38.8515 8.80366L39.6054 7.86265L30.3015 1.09623C30.1386 0.980334 29.9436 0.918064 29.7436 0.918064C29.5436 0.918064 29.3486 0.980334 29.1857 1.09623L19.8811 7.86265Z" fill="#C52031"/>
<path d="M30.6449 16.1382L28.2795 13.5313V12.7865H29.5105C29.8212 12.7865 30.0894 12.6794 30.3151 12.4652C30.5408 12.2511 30.6771 11.9857 30.724 11.6692H27.9277V10.9243H30.6185C30.5188 10.7071 30.3708 10.5286 30.1744 10.389C29.978 10.2493 29.7567 10.1795 29.5105 10.1795H27.9277V9.43466H32.1485V10.1795H31.0054C31.0875 10.285 31.1607 10.3999 31.2252 10.524C31.2897 10.6481 31.3395 10.7816 31.3747 10.9243H32.1485V11.6692H31.4363C31.3894 12.1968 31.1842 12.639 30.8207 12.9959C30.4573 13.3528 30.0205 13.5313 29.5105 13.5313H29.2555L31.6209 16.1382H30.6449Z" fill="#C52031"/>
<path d="M0.81 43.44V36.21H2.265V39.11H5.43V36.21H6.89V43.44H5.43V40.335H2.265V43.44H0.81ZM10.4386 43.54C9.93193 43.54 9.49026 43.4317 9.11359 43.215C8.74026 42.9983 8.45026 42.6917 8.24359 42.295C8.04026 41.8983 7.93859 41.4283 7.93859 40.885C7.93859 40.3417 8.04026 39.8667 8.24359 39.46C8.45026 39.0533 8.74026 38.7367 9.11359 38.51C9.49026 38.2833 9.93359 38.17 10.4436 38.17C10.9536 38.17 11.3953 38.2817 11.7686 38.505C12.1419 38.725 12.4303 39.0383 12.6336 39.445C12.8369 39.8517 12.9386 40.3317 12.9386 40.885C12.9386 41.405 12.8386 41.865 12.6386 42.265C12.4419 42.6617 12.1569 42.9733 11.7836 43.2C11.4136 43.4267 10.9653 43.54 10.4386 43.54ZM10.4436 42.455C10.7003 42.455 10.9069 42.38 11.0636 42.23C11.2203 42.08 11.3336 41.8833 11.4036 41.64C11.4736 41.3933 11.5086 41.125 11.5086 40.835C11.5086 40.5617 11.4769 40.3033 11.4136 40.06C11.3503 39.8167 11.2403 39.62 11.0836 39.47C10.9269 39.32 10.7136 39.245 10.4436 39.245C10.1869 39.245 9.97859 39.3167 9.81859 39.46C9.66193 39.6 9.54693 39.7917 9.47359 40.035C9.40026 40.275 9.36359 40.5417 9.36359 40.835C9.36359 41.105 9.39693 41.365 9.46359 41.615C9.53026 41.8617 9.64193 42.0633 9.79859 42.22C9.95526 42.3767 10.1703 42.455 10.4436 42.455ZM13.9355 43.44V38.27H15.3655V39C15.5222 38.7733 15.7322 38.5783 15.9955 38.415C16.2622 38.2517 16.5972 38.17 17.0005 38.17C17.1772 38.17 17.3572 38.2017 17.5405 38.265C17.7239 38.3283 17.8955 38.4217 18.0555 38.545C18.2189 38.665 18.3505 38.8167 18.4505 39C18.6172 38.7633 18.8355 38.5667 19.1055 38.41C19.3789 38.25 19.6822 38.17 20.0155 38.17C20.2089 38.17 20.4039 38.2017 20.6005 38.265C20.8005 38.3283 20.9839 38.4317 21.1505 38.575C21.3172 38.7183 21.4505 38.91 21.5505 39.15C21.6539 39.3867 21.7055 39.68 21.7055 40.03V43.44H20.2455V40.21C20.2455 40.0033 20.2039 39.8383 20.1205 39.715C20.0405 39.5883 19.9372 39.4983 19.8105 39.445C19.6872 39.3883 19.5555 39.36 19.4155 39.36C19.2855 39.36 19.1539 39.3867 19.0205 39.44C18.8872 39.49 18.7739 39.5717 18.6805 39.685C18.5872 39.7983 18.5405 39.9467 18.5405 40.13V43.44H17.0855V40.08C17.0855 39.9233 17.0439 39.7917 16.9605 39.685C16.8772 39.5783 16.7722 39.4983 16.6455 39.445C16.5222 39.3883 16.3955 39.36 16.2655 39.36C16.1322 39.36 15.9989 39.3883 15.8655 39.445C15.7322 39.4983 15.6205 39.5833 15.5305 39.7C15.4405 39.8133 15.3955 39.9567 15.3955 40.13V43.44H13.9355ZM25.2656 43.54C24.7523 43.54 24.3006 43.4333 23.9106 43.22C23.524 43.0033 23.2223 42.6983 23.0056 42.305C22.789 41.9117 22.6806 41.4483 22.6806 40.915C22.6806 40.3983 22.779 39.9333 22.9756 39.52C23.1756 39.1033 23.4623 38.775 23.8356 38.535C24.209 38.2917 24.6606 38.17 25.1906 38.17C25.7173 38.17 26.159 38.2817 26.5156 38.505C26.8723 38.725 27.1423 39.0333 27.3256 39.43C27.509 39.8233 27.6006 40.2783 27.6006 40.795V41.19H24.1256C24.1256 41.4533 24.169 41.6833 24.2556 41.88C24.3423 42.0733 24.4673 42.2233 24.6306 42.33C24.7973 42.4333 24.9973 42.485 25.2306 42.485C25.4806 42.485 25.699 42.4317 25.8856 42.325C26.0723 42.2183 26.204 42.0433 26.2806 41.8H27.5956C27.5356 42.1667 27.389 42.48 27.1556 42.74C26.9223 43 26.639 43.1983 26.3056 43.335C25.9723 43.4717 25.6256 43.54 25.2656 43.54ZM24.1256 40.32H26.2356C26.2356 40.1133 26.1956 39.9233 26.1156 39.75C26.039 39.5767 25.9223 39.44 25.7656 39.34C25.6123 39.24 25.419 39.19 25.1856 39.19C24.9623 39.19 24.7706 39.245 24.6106 39.355C24.454 39.4617 24.3323 39.6017 24.2456 39.775C24.1623 39.9483 24.1223 40.13 24.1256 40.32ZM31.0639 43.44V36.21H32.5339V42.205H35.6739V43.44H31.0639ZM38.8077 43.54C38.3011 43.54 37.8594 43.4317 37.4827 43.215C37.1094 42.9983 36.8194 42.6917 36.6127 42.295C36.4094 41.8983 36.3077 41.4283 36.3077 40.885C36.3077 40.3417 36.4094 39.8667 36.6127 39.46C36.8194 39.0533 37.1094 38.7367 37.4827 38.51C37.8594 38.2833 38.3027 38.17 38.8127 38.17C39.3227 38.17 39.7644 38.2817 40.1377 38.505C40.5111 38.725 40.7994 39.0383 41.0027 39.445C41.2061 39.8517 41.3077 40.3317 41.3077 40.885C41.3077 41.405 41.2077 41.865 41.0077 42.265C40.8111 42.6617 40.5261 42.9733 40.1527 43.2C39.7827 43.4267 39.3344 43.54 38.8077 43.54ZM38.8127 42.455C39.0694 42.455 39.2761 42.38 39.4327 42.23C39.5894 42.08 39.7027 41.8833 39.7727 41.64C39.8427 41.3933 39.8777 41.125 39.8777 40.835C39.8777 40.5617 39.8461 40.3033 39.7827 40.06C39.7194 39.8167 39.6094 39.62 39.4527 39.47C39.2961 39.32 39.0827 39.245 38.8127 39.245C38.5561 39.245 38.3477 39.3167 38.1877 39.46C38.0311 39.6 37.9161 39.7917 37.8427 40.035C37.7694 40.275 37.7327 40.5417 37.7327 40.835C37.7327 41.105 37.7661 41.365 37.8327 41.615C37.8994 41.8617 38.0111 42.0633 38.1677 42.22C38.3244 42.3767 38.5394 42.455 38.8127 42.455ZM43.8104 43.54C43.4837 43.54 43.1871 43.4783 42.9204 43.355C42.6571 43.2317 42.4487 43.0533 42.2954 42.82C42.1421 42.5833 42.0654 42.2967 42.0654 41.96C42.0654 41.3933 42.2771 40.9633 42.7004 40.67C43.1237 40.3733 43.7921 40.22 44.7054 40.21L45.3554 40.2V39.89C45.3554 39.6533 45.2854 39.4717 45.1454 39.345C45.0087 39.215 44.7937 39.1517 44.5004 39.155C44.2904 39.1583 44.0887 39.2083 43.8954 39.305C43.7054 39.4017 43.5737 39.57 43.5004 39.81H42.2854C42.3054 39.4367 42.4137 39.13 42.6104 38.89C42.8104 38.6467 43.0787 38.4667 43.4154 38.35C43.7521 38.23 44.1371 38.17 44.5704 38.17C45.0971 38.17 45.5204 38.2367 45.8404 38.37C46.1604 38.5 46.3921 38.6883 46.5354 38.935C46.6821 39.1783 46.7554 39.4683 46.7554 39.805V43.44H45.5354L45.4154 42.55C45.2387 42.9233 45.0171 43.1817 44.7504 43.325C44.4871 43.4683 44.1737 43.54 43.8104 43.54ZM44.3054 42.58C44.4354 42.58 44.5621 42.5567 44.6854 42.51C44.8121 42.46 44.9254 42.395 45.0254 42.315C45.1254 42.2317 45.2037 42.1383 45.2604 42.035C45.3204 41.9317 45.3521 41.825 45.3554 41.715V40.95L44.8304 40.96C44.5871 40.9633 44.3604 40.9933 44.1504 41.05C43.9404 41.1033 43.7704 41.1917 43.6404 41.315C43.5137 41.4383 43.4504 41.605 43.4504 41.815C43.4504 42.055 43.5321 42.2433 43.6954 42.38C43.8621 42.5133 44.0654 42.58 44.3054 42.58ZM47.9395 43.44V38.27H49.3745V39C49.4545 38.8733 49.5578 38.7517 49.6845 38.635C49.8145 38.515 49.9778 38.4167 50.1745 38.34C50.3711 38.2633 50.6045 38.225 50.8745 38.225C51.1911 38.225 51.4861 38.2867 51.7595 38.41C52.0361 38.5333 52.2595 38.7283 52.4295 38.995C52.5995 39.2583 52.6845 39.6033 52.6845 40.03V43.44H51.2245V40.21C51.2245 39.93 51.1411 39.72 50.9745 39.58C50.8078 39.44 50.6045 39.37 50.3645 39.37C50.2045 39.37 50.0495 39.3983 49.8995 39.455C49.7528 39.5117 49.6328 39.5967 49.5395 39.71C49.4461 39.8233 49.3995 39.9633 49.3995 40.13V43.44H47.9395Z" fill="#C52031"/>
</svg>
